<?xml version="1.0" encoding="UTF-8"?>
<svg id="Layer_2" xmlns="http://www.w3.org/2000/svg" viewBox="0 0 482.58 484.16">
  <defs>
    <style>
      .cls-1 {
        fill: #ffb732;
        stroke: #ffb732;
        stroke-width: 1.13px;
      }

      .cls-1, .cls-2 {
        stroke-miterlimit: 10;
      }

      .cls-2 {
        fill: #fff;
        stroke: #fff;
        stroke-width: 47px;
      }
    </style>
  </defs>
  <g id="Layer_1-2" data-name="Layer_1">
    <g id="sticker-dark">
      <g>
        <g>
          <ellipse class="cls-2" cx="332.62" cy="145.15" rx="45.06" ry="35.46" transform="translate(68.24 393.77) rotate(-66.82)"/>
          <path class="cls-2" d="M326.19,189.42c-3.93,0-7.82-.75-11.52-2.34-18.25-7.82-25.05-32.99-15.15-56.11,9.9-23.12,32.81-35.57,51.06-27.75,18.25,7.82,25.05,32.99,15.15,56.11h0c-7.9,18.44-24.06,30.09-39.54,30.09ZM339.05,101.98c-15.05,0-30.8,11.4-38.52,29.42-9.66,22.56-3.13,47.09,14.57,54.66,17.69,7.58,39.96-4.61,49.62-27.17,9.66-22.56,3.13-47.08-14.57-54.66-3.56-1.53-7.31-2.25-11.1-2.25Z"/>
        </g>
        <g>
          <path class="cls-2" d="M293.7,344.23c13.06,22.62,44.38,34.32,61.34,24.53s21.75-45.06,8.7-67.68c-13.06-22.62-41.26-29.59-58.22-19.8-16.96,9.79-24.88,40.33-11.82,62.95Z"/>
          <path class="cls-2" d="M340.5,372.87c-17.03,0-37.42-11.3-47.28-28.36h0c-6.12-10.6-8.09-23.97-5.41-36.67,2.55-12.1,9.07-22.2,17.43-27.03,8.53-4.93,19.84-5.77,31.01-2.3,11.84,3.67,21.77,11.59,27.96,22.3,13.06,22.63,8.41,58.44-8.9,68.43-4.3,2.48-9.39,3.63-14.82,3.63ZM294.18,343.95c6.1,10.56,16.64,19.38,28.93,24.18,11.92,4.66,23.75,4.72,31.66.15,16.85-9.73,21.29-44.76,8.49-66.93-6.05-10.47-15.75-18.21-27.33-21.8-10.88-3.37-21.87-2.57-30.13,2.2-8.09,4.67-14.41,14.51-16.91,26.3-2.63,12.44-.7,25.53,5.29,35.89Z"/>
        </g>
        <g>
          <path class="cls-2" d="M341.28,81.9c7.95-24.87-41.16-47.97-59.67-54.38-30.51-10.56-47.76,4.62-56.16,27.19-13.37,35.91-14.13,51.87,18.93,59.74,22.98,5.47,88.29-5.63,96.9-32.55Z"/>
          <path class="cls-2" d="M258.56,116.33c-5.65,0-10.57-.44-14.31-1.33-13.68-3.26-21.77-8-25.46-14.92-5.33-9.98-1.78-24.26,6.14-45.55,7.1-19.07,22.73-39.33,56.86-27.52,19.44,6.73,68.11,29.73,60.01,55.06-7.3,22.85-54.63,34.26-83.24,34.26ZM263.06,24.63c-20.85,0-31.59,15.5-37.09,30.28-7.82,21-11.34,35.03-6.2,44.65,3.54,6.63,11.4,11.19,24.75,14.37,22.38,5.33,87.66-5.33,96.25-32.19h0c7.79-24.37-41.46-47.51-59.32-53.69-6.86-2.37-12.96-3.42-18.37-3.42Z"/>
        </g>
        <g>
          <path class="cls-2" d="M38.12,232.08c16.02,20.62,65.4-4.08,78.41-18.72,6.3-7.09,14.04-41.22,6.06-56-22.01-40.74-45.31-29.2-56.15-18.45-17.88,17.72-45.66,70.85-28.32,93.17Z"/>
          <path class="cls-2" d="M57.26,240.51c-.45,0-.89,0-1.32-.02-8.16-.27-14.29-2.99-18.25-8.07-7.71-9.92-7.4-27.27.88-48.85,7.61-19.84,19.29-36.93,27.49-45.05,4.55-4.51,13.95-11.82,25.79-10.06,11.37,1.69,21.88,11.33,31.24,28.65,7.97,14.75.68,48.97-6.13,56.63-9.8,11.02-38.79,26.78-59.69,26.78ZM88.24,129.29c-9.74,0-17.46,6.09-21.41,10.01-16.79,16.63-45.58,70.17-28.27,92.44h0c3.74,4.82,9.6,7.39,17.41,7.65,20.67.68,50.28-15.29,60.15-26.39,6.48-7.29,13.61-41.27,5.99-55.38-9.18-17-19.42-26.45-30.43-28.08-1.17-.17-2.32-.25-3.44-.25Z"/>
        </g>
        <g>
          <ellipse class="cls-2" cx="268.26" cy="161.69" rx="17.41" ry="20.68" transform="translate(-44.9 155.79) rotate(-30)"/>
          <path class="cls-2" d="M270.99,182.16c-2.05,0-4.16-.38-6.26-1.14-4.92-1.78-9.19-5.46-12.02-10.36-5.85-10.14-3.64-22.41,4.94-27.37,4.17-2.41,9.2-2.75,14.15-.95,4.92,1.78,9.19,5.46,12.02,10.36h0c2.83,4.9,3.88,10.43,2.96,15.58-.92,5.19-3.73,9.37-7.9,11.78-2.4,1.39-5.09,2.09-7.89,2.09ZM265.54,142.31c-2.61,0-5.11.65-7.34,1.94-8.05,4.65-10.08,16.25-4.54,25.86,2.7,4.67,6.76,8.18,11.44,9.87,4.65,1.68,9.34,1.37,13.23-.87,3.88-2.24,6.5-6.16,7.37-11.02.87-4.9-.13-10.17-2.83-14.84h0c-2.7-4.67-6.76-8.18-11.44-9.87-1.98-.72-3.96-1.07-5.89-1.07Z"/>
        </g>
        <g>
          <ellipse class="cls-2" cx="421.76" cy="214.3" rx="32.9" ry="31.82"/>
          <path class="cls-2" d="M421.76,246.66c-18.45,0-33.46-14.52-33.46-32.37s15.01-32.37,33.46-32.37,33.45,14.52,33.45,32.37-15.01,32.37-33.45,32.37ZM421.76,183.03c-17.84,0-32.36,14.03-32.36,31.27s14.51,31.27,32.36,31.27,32.35-14.03,32.35-31.27-14.51-31.27-32.35-31.27Z"/>
        </g>
        <g>
          <ellipse class="cls-2" cx="425.63" cy="300.07" rx="32.9" ry="31.82"/>
          <path class="cls-2" d="M425.63,332.44c-18.45,0-33.46-14.52-33.46-32.37s15.01-32.37,33.46-32.37,33.45,14.52,33.45,32.37-15.01,32.37-33.45,32.37ZM425.63,268.8c-17.84,0-32.36,14.03-32.36,31.27s14.51,31.27,32.36,31.27,32.35-14.03,32.35-31.27-14.51-31.27-32.35-31.27Z"/>
        </g>
        <g>
          <path class="cls-2" d="M254.41,308.38c-6.14-10.64-23.52-14.61-32.86-9.22-9.34,5.39-6.14,16.7,0,27.34s21.93,13.96,31.27,8.57,7.74-16.05,1.59-26.69Z"/>
          <path class="cls-2" d="M242.45,338.16c-2.17,0-4.41-.27-6.6-.83-6.46-1.63-11.85-5.48-14.78-10.56-3.54-6.12-5.51-11.46-5.88-15.86-.46-5.52,1.59-9.63,6.08-12.22,4.62-2.67,11.37-3.21,18.05-1.46,6.96,1.83,12.63,5.79,15.57,10.88h0c3.37,5.84,5.08,11.08,5.08,15.59,0,5.23-2.31,9.22-6.88,11.86-2.98,1.72-6.72,2.61-10.64,2.61ZM231.65,297.31c-3.72,0-7.16.79-9.82,2.33-4.09,2.36-5.95,6.12-5.53,11.18.35,4.24,2.28,9.42,5.74,15.4,2.78,4.82,7.92,8.48,14.09,10.04,5.89,1.49,12.04.87,16.42-1.67,4.2-2.43,6.33-6.09,6.33-10.9,0-4.25-1.71-9.45-4.94-15.04h0c-2.79-4.83-8.22-8.61-14.89-10.36-2.5-.66-5.01-.98-7.39-.98Z"/>
        </g>
        <g>
          <ellipse class="cls-2" cx="228.9" cy="138.81" rx="17.92" ry="16.83" transform="translate(-38.74 133.05) rotate(-30)"/>
          <path class="cls-2" d="M227.97,156.46c-6.12,0-11.93-2.99-15.07-8.42-4.79-8.3-1.51-19.19,7.3-24.28,4.27-2.46,9.18-3.22,13.84-2.12,4.67,1.1,8.52,3.92,10.84,7.94h0c2.32,4.03,2.84,8.77,1.46,13.36-1.38,4.58-4.49,8.46-8.76,10.92-3.05,1.76-6.38,2.6-9.62,2.6ZM229.82,122.25c-3.12,0-6.24.84-9.06,2.47-8.29,4.79-11.39,15.01-6.9,22.78,4.49,7.77,14.88,10.2,23.18,5.41,4.02-2.32,6.96-5.98,8.26-10.29,1.3-4.3.82-8.74-1.36-12.5h0c-2.17-3.76-5.77-6.4-10.14-7.42-1.31-.31-2.64-.46-3.97-.46Z"/>
        </g>
        <g>
          <path class="cls-2" d="M164.91,423.94c-3.82-9.43-12.73-13.61-21.21-7.18-6.5,4.93-12.3,13.5-7.65,21.55,4.65,8.05,17.41,11.68,24.48,7.6s7.88-13.35,4.39-21.96Z"/>
          <path class="cls-2" d="M153.46,448.17c-6.85,0-14.51-3.72-17.9-9.59-4.85-8.39,1.17-17.24,7.8-22.26,3.82-2.89,7.9-3.85,11.81-2.78,4.37,1.2,8.1,4.92,10.24,10.19,3.92,9.68,2.07,18.79-4.62,22.65-2.12,1.22-4.66,1.79-7.33,1.79ZM152.04,414.21c-2.68,0-5.41,1.01-8.01,2.98-6.27,4.75-12,13.06-7.51,20.84,4.35,7.54,16.77,11.41,23.73,7.4,6.29-3.63,7.92-11.98,4.15-21.28h0c-2.01-4.96-5.48-8.43-9.51-9.55-.94-.26-1.89-.39-2.85-.39Z"/>
        </g>
        <g>
          <path class="cls-2" d="M198.43,121.53c-7.8-17.6-27.55-23.36-45-10.29-14.95,11.2-28.28,27.75-19.6,42.78,8.68,15.03,34.84,20.98,51.02,11.64,16.18-9.34,20.61-28.26,13.59-44.12Z"/>
          <path class="cls-2" d="M166.8,170.64c-13.52,0-27.53-6.1-33.45-16.35-10.44-18.09,10.33-36.44,19.75-43.49,8.55-6.4,18.11-8.67,26.91-6.37,8.35,2.18,15.08,8.18,18.93,16.88h0c7.53,17,1.72,35.85-13.82,44.82-5.34,3.08-11.77,4.52-18.32,4.52ZM173.16,104.65c-6.52,0-13.22,2.4-19.4,7.02-9.18,6.88-29.46,24.74-19.46,42.06,8.51,14.75,34.35,20.62,50.27,11.44,15.04-8.68,20.66-26.95,13.36-43.42h0c-3.72-8.39-10.18-14.16-18.2-16.26-2.15-.56-4.35-.84-6.57-.84Z"/>
        </g>
        <g>
          <path class="cls-2" d="M314.65,379.95c-19.62-4.26-33.43,8.48-36.71,27.99-3.65,21.69,3.32,40.34,25.21,38.68,17.3-1.31,33.53-9.58,36.71-27.99,3.18-18.41-8.25-34.99-25.21-38.68Z"/>
          <path class="cls-2" d="M300.46,447.28c-7.15,0-12.86-2.29-17-6.83-6.29-6.89-8.44-18.46-6.06-32.6,1.83-10.88,6.9-19.62,14.28-24.62,6.47-4.38,14.45-5.7,23.09-3.82,17.52,3.81,28.78,21.07,25.63,39.31-4.04,23.43-27.37,27.7-37.21,28.45-.93.07-1.84.11-2.73.11ZM307.31,379.69c-5.54,0-10.65,1.5-15.02,4.46-7.12,4.82-12.03,13.31-13.81,23.89-2.29,13.59-.18,25.14,5.79,31.67,4.42,4.84,10.75,6.98,18.83,6.37,9.58-.73,32.3-4.87,36.21-27.54,3.05-17.65-7.84-34.37-24.78-38.05h0c-2.47-.54-4.89-.8-7.22-.8Z"/>
        </g>
        <g>
          <path class="cls-2" d="M256.5,402.4c-8.68-15.03-31.73-14.81-47.91-5.47-16.18,9.34-26.89,34.58-14.61,45.94,24.24,22.44,29.17,19.69,45,10.29,16.07-9.53,26.19-35.74,17.52-50.77Z"/>
          <path class="cls-2" d="M221.98,460.66c-6.88,0-14.61-4.65-28.37-17.39-4.26-3.94-6.1-9.71-5.32-16.67,1.29-11.51,9.71-24.19,20.03-30.15,16.44-9.49,39.92-9.48,48.66,5.67h0c8.57,14.85-.53,41.33-17.71,51.52-6.94,4.12-11.85,7.03-17.29,7.03ZM232.36,391.01c-7.93,0-16.38,2.29-23.49,6.4-10.04,5.8-18.24,18.13-19.49,29.32-.52,4.6-.07,11.07,4.98,15.74,24.05,22.26,28.76,19.47,44.35,10.22,16.4-9.73,25.47-35.91,17.32-50.02h0c-4.67-8.09-13.77-11.67-23.67-11.67Z"/>
        </g>
        <g>
          <path class="cls-2" d="M216.97,252.03c-13.87-32.23,11.71-52.93,2.54-64.14-20.72-25.31-58.33-2.99-76.37,38.07-15.06,34.28-3.11,61.51,17.27,68.71,20.39,7.2,71.36-8.25,56.55-42.65Z"/>
          <path class="cls-2" d="M172.18,296.95c-4.5,0-8.62-.58-11.95-1.75-9.09-3.21-16.4-10.27-20.56-19.89-6.02-13.9-4.97-31.5,2.97-49.56,11.69-26.61,32.24-46.23,51.13-48.82,10.28-1.4,19.33,2.27,26.16,10.62,4.04,4.94,1.72,11.48-1.22,19.76-4.1,11.57-9.21,25.97-1.24,44.5h0c4.76,11.05,3.18,21.26-4.54,29.53-9.53,10.19-26.95,15.61-40.75,15.61ZM197.98,177.74c-1.33,0-2.68.09-4.05.28-18.53,2.54-38.73,21.89-50.28,48.17-7.81,17.78-8.86,35.06-2.97,48.68,4.04,9.33,11.12,16.18,19.92,19.29,13.23,4.67,39.16-.34,51.53-13.57,7.41-7.92,8.91-17.72,4.34-28.34-8.15-18.93-2.74-34.17,1.21-45.31,2.82-7.96,5.05-14.24,1.41-18.7-5.67-6.92-12.9-10.5-21.11-10.5Z"/>
        </g>
        <g>
          <path class="cls-2" d="M148.2,400.88c31.67-11.68,70.26-49.28,62.12-69.31-7.64-18.79-57.74-13.88-89.22-4.14-32.25,9.98-52.88,17.7-45.39,37.98,7.48,20.28,40.82,47.16,72.49,35.47Z"/>
          <path class="cls-2" d="M132.22,404.25c-9.76,0-19.89-2.91-29.62-8.65-12.68-7.47-23.44-19.25-27.41-30.01-2.11-5.73-2.1-10.62.04-14.96,5.19-10.51,22.22-16.47,45.7-23.74,32.8-10.15,82.29-14.25,89.89,4.46,1.96,4.82,1.41,10.74-1.62,17.61-8.57,19.41-36.42,43.42-60.82,52.42l-.19-.52.19.52c-5.17,1.91-10.61,2.85-16.17,2.85ZM175.31,319.32c-17.25,0-37.73,3.58-54.05,8.63-23.22,7.19-40.04,13.05-45.04,23.17-2,4.05-2,8.66,0,14.09,3.89,10.53,14.46,22.09,26.94,29.44,14.98,8.82,30.9,10.85,44.85,5.71h0c24.16-8.91,51.72-32.65,60.19-51.83,2.91-6.59,3.45-12.23,1.61-16.76-3.65-8.98-17.5-12.46-34.49-12.46Z"/>
        </g>
        <g>
          <ellipse class="cls-2" cx="190.03" cy="63.18" rx="21.03" ry="23.95" transform="translate(-8.35 35.85) rotate(-10.55)"/>
          <path class="cls-2" d="M191,87.59c-10.42,0-19.97-8.51-22.2-20.46-2.47-13.28,5.03-25.85,16.73-28.03,11.7-2.18,23.23,6.85,25.7,20.13,2.47,13.28-5.03,25.85-16.73,28.03-1.17.22-2.35.32-3.51.32ZM189.05,39.87c-1.1,0-2.2.1-3.31.31-11.1,2.07-18.21,14.07-15.85,26.75s13.32,21.32,24.42,19.25c11.1-2.07,18.21-14.07,15.85-26.75-2.13-11.42-11.22-19.56-21.11-19.56Z"/>
        </g>
        <g>
          <path class="cls-2" d="M154.32,74.57c-1.57-8.43-8.85-14.15-16.25-12.77s-17.81,10.1-13.31,17.4c3.23,5.23,16.4,9.26,21.87,11.62,6.91,2.99,9.26-7.82,7.69-16.25Z"/>
          <path class="cls-2" d="M148.86,91.87c-.78,0-1.59-.18-2.45-.55-1.11-.48-2.53-1.03-4.17-1.66-6.45-2.48-15.28-5.87-17.95-10.18-1.43-2.32-1.55-4.98-.35-7.7,2.36-5.33,9.12-9.61,14.02-10.52,3.74-.69,7.56.3,10.75,2.81,3.17,2.49,5.35,6.19,6.14,10.4h0c1.09,5.87.37,13.6-3.12,16.38-.85.68-1.83,1.02-2.89,1.02ZM140.29,62.14c-.71,0-1.42.07-2.13.2-4.63.86-11.01,4.89-13.22,9.89-1.07,2.41-.97,4.65.28,6.68,2.47,3.99,11.46,7.45,17.4,9.73,1.65.64,3.08,1.18,4.22,1.67,1.63.71,3.05.6,4.21-.32,3.04-2.42,3.77-9.69,2.72-15.32h0c-.73-3.95-2.77-7.4-5.74-9.73-2.34-1.83-5.03-2.79-7.75-2.79Z"/>
        </g>
        <g>
          <path class="cls-2" d="M78.94,292.61c-5.77-23.51-16.57-45.05-32.34-42.11-15.78,2.94-23.44,31.52-22.46,55.76.98,24.18,10.62,34.14,26.37,37.24,18.39,3.61,36.53-17.9,28.44-50.88Z"/>
          <path class="cls-2" d="M54.51,344.43c-1.37,0-2.74-.13-4.12-.4-17.62-3.46-25.89-15.1-26.81-37.75-1.03-25.4,7.26-53.4,22.91-56.32,19.45-3.63,29.54,28.53,32.98,42.52,4.38,17.86,1.39,34.4-8.01,44.26-4.78,5.01-10.79,7.7-16.95,7.7ZM49.48,250.78c-.91,0-1.84.08-2.79.26-15.06,2.81-23.02,30.27-22.01,55.19.89,22.05,8.89,33.37,25.92,36.72,7.17,1.4,14.48-1.14,20.06-6.98,9.14-9.58,12.03-25.74,7.74-43.23h0c-3.19-12.98-12.19-41.96-28.92-41.96Z"/>
        </g>
        <g>
          <ellipse class="cls-2" cx="110.15" cy="274.34" rx="22.07" ry="25.13" transform="translate(-48.36 24.8) rotate(-10.55)"/>
          <path class="cls-2" d="M111.14,299.93c-4.72,0-9.38-1.66-13.42-4.83-5.07-3.99-8.56-9.89-9.81-16.62-1.25-6.73-.13-13.49,3.17-19.04,3.31-5.57,8.42-9.24,14.37-10.35,5.95-1.11,12.04.49,17.13,4.49,5.07,3.99,8.56,9.89,9.81,16.62h0c1.25,6.73.13,13.49-3.17,19.04-3.31,5.57-8.42,9.24-14.37,10.35-1.24.23-2.48.34-3.71.34ZM109.16,249.85c-1.17,0-2.34.11-3.51.32-5.64,1.05-10.48,4.54-13.63,9.83-3.16,5.31-4.24,11.8-3.03,18.27,1.2,6.47,4.54,12.13,9.41,15.95,4.84,3.81,10.61,5.32,16.25,4.27,5.64-1.05,10.48-4.54,13.63-9.83,3.16-5.31,4.24-11.8,3.03-18.27h0c-1.2-6.47-4.54-12.13-9.41-15.95-3.84-3.02-8.27-4.6-12.75-4.6Z"/>
        </g>
        <g>
          <path class="cls-2" d="M119.19,100.44c4.58-9.76-9.96-21.34-22.81-19.43-10.69,1.59-17.03,10.77-13.38,22.49,3.23,10.37,11.4,18.77,20.58,16.17,10.89-3.08,11.35-10.15,15.61-19.23Z"/>
          <path class="cls-2" d="M100.19,120.71c-8.16,0-14.9-8.02-17.71-17.04-1.79-5.74-1.29-11.27,1.41-15.56,2.59-4.13,7-6.84,12.42-7.65,7.84-1.17,16.93,2.56,21.62,8.85,2.8,3.77,3.43,7.8,1.76,11.36h0c-.84,1.79-1.53,3.49-2.19,5.14-2.67,6.62-4.78,11.85-13.76,14.39-1.21.34-2.39.5-3.55.5ZM99.16,81.36c-.91,0-1.81.06-2.69.19-5.09.76-9.23,3.29-11.65,7.14-2.52,4.01-2.98,9.21-1.29,14.64,3.05,9.79,10.86,18.37,19.91,15.81,8.46-2.4,10.38-7.16,13.04-13.74.67-1.66,1.36-3.37,2.21-5.19,1.49-3.17.9-6.81-1.65-10.23-3.86-5.19-11.18-8.62-17.89-8.62Z"/>
        </g>
        <g>
          <path class="cls-2" d="M278.68,364.62c-1.86-9.96-11.6-20.92-23.33-18.73-11.73,2.18-17.53,8.15-15.68,18.12s10.66,20.15,22.4,17.97c11.73-2.18,18.47-7.39,16.61-17.35Z"/>
          <path class="cls-2" d="M258.95,382.81c-10.18,0-18.04-9.14-19.82-18.71-.94-5.06.02-9.25,2.87-12.44,2.73-3.06,7.19-5.19,13.24-6.32,11.62-2.17,21.96,8.37,23.97,19.17.92,4.97-.21,9.04-3.37,12.09-2.86,2.76-7.46,4.74-13.68,5.9-1.09.2-2.17.3-3.21.3ZM258.33,346.16c-.95,0-1.91.09-2.88.27-5.81,1.08-10.06,3.09-12.62,5.97-2.61,2.93-3.49,6.8-2.61,11.51,1.87,10.03,10.72,19.58,21.75,17.53,6.01-1.12,10.42-3.01,13.12-5.61,2.92-2.82,3.92-6.45,3.05-11.1-1.75-9.38-10.04-18.56-19.81-18.56Z"/>
        </g>
      </g>
      <g>
        <ellipse class="cls-1" cx="330.01" cy="142.43" rx="46.33" ry="36.46" transform="translate(69.16 389.71) rotate(-66.82)"/>
        <path class="cls-1" d="M289.99,347.1c13.42,23.25,45.63,35.29,63.07,25.22,17.44-10.07,22.36-46.33,8.94-69.58-13.42-23.25-42.42-30.42-59.85-20.36-17.44,10.07-25.58,41.46-12.15,64.71Z"/>
        <path class="cls-1" d="M338.91,77.4c8.17-25.57-42.31-49.32-61.34-55.9-31.37-10.86-49.1,4.75-57.74,27.95-13.74,36.92-14.52,53.33,19.46,61.42,23.62,5.62,90.77-5.79,99.62-33.47Z"/>
        <path class="cls-1" d="M27.23,231.8c16.47,21.2,67.24-4.19,80.61-19.24,6.48-7.29,14.44-42.38,6.23-57.57-22.63-41.88-46.58-30.02-57.73-18.97-18.38,18.21-46.94,72.84-29.12,95.79Z"/>
        <ellipse class="cls-1" cx="263.84" cy="159.43" rx="17.9" ry="21.26" transform="translate(-44.37 153.28) rotate(-30)"/>
        <ellipse class="cls-1" cx="421.64" cy="213.52" rx="33.83" ry="32.71"/>
        <ellipse class="cls-1" cx="425.63" cy="301.7" rx="33.83" ry="32.71"/>
        <path class="cls-1" d="M249.6,310.24c-6.31-10.94-24.18-15.02-33.79-9.47-9.61,5.55-6.31,17.17,0,28.1,6.31,10.94,22.54,14.36,32.15,8.81s7.95-16.5,1.64-27.44Z"/>
        <ellipse class="cls-1" cx="223.37" cy="135.91" rx="18.42" ry="17.3" transform="translate(-38.03 129.89) rotate(-30)"/>
        <path class="cls-1" d="M157.58,429.04c-3.93-9.69-13.09-14-21.81-7.38-6.69,5.07-12.65,13.88-7.87,22.15,4.78,8.27,17.9,12.01,25.17,7.81,7.27-4.2,8.1-13.73,4.51-22.58Z"/>
        <path class="cls-1" d="M192.05,118.14c-8.02-18.1-28.33-24.02-46.27-10.58-15.37,11.51-29.07,28.53-20.15,43.98,8.92,15.45,35.82,21.57,52.45,11.96,16.63-9.6,21.19-29.05,13.97-45.36Z"/>
        <path class="cls-1" d="M311.53,383.83c-20.17-4.38-34.37,8.72-37.74,28.78-3.75,22.3,3.42,41.47,25.91,39.77,17.79-1.35,34.48-9.85,37.74-28.78,3.27-18.93-8.48-35.98-25.91-39.77Z"/>
        <path class="cls-1" d="M251.75,406.9c-8.92-15.45-32.62-15.22-49.26-5.62-16.63,9.6-27.65,35.55-15.02,47.23,24.92,23.07,29.99,20.24,46.27,10.58,16.52-9.8,26.93-36.75,18.01-52.19Z"/>
        <path class="cls-1" d="M211.11,252.31c-14.26-33.14,12.04-54.41,2.61-65.94-21.3-26.02-59.96-3.07-78.51,39.14-15.48,35.25-3.2,63.24,17.76,70.64,20.96,7.4,73.36-8.48,58.14-43.84Z"/>
        <path class="cls-1" d="M140.4,405.34c32.56-12.01,72.23-50.67,63.86-71.26-7.85-19.32-59.37-14.27-91.72-4.26-33.16,10.26-54.36,18.19-46.67,39.05,7.69,20.85,41.96,48.48,74.53,36.47Z"/>
        <ellipse class="cls-1" cx="183.4" cy="58.15" rx="21.62" ry="24.62" transform="translate(-7.55 34.55) rotate(-10.55)"/>
        <path class="cls-1" d="M146.69,69.86c-1.61-8.67-9.09-14.55-16.71-13.13-7.61,1.42-18.31,10.38-13.68,17.88,3.32,5.37,16.86,9.52,22.48,11.95,7.11,3.08,9.52-8.04,7.91-16.71Z"/>
        <path class="cls-1" d="M69.2,294.03c-5.93-24.17-17.03-46.31-33.25-43.29-16.22,3.02-24.1,32.41-23.09,57.32,1.01,24.86,10.92,35.1,27.11,38.28,18.91,3.71,37.56-18.4,29.24-52.31Z"/>
        <ellipse class="cls-1" cx="101.29" cy="275.24" rx="22.69" ry="25.84" transform="translate(-48.67 23.19) rotate(-10.55)"/>
        <path class="cls-1" d="M110.58,96.46c4.71-10.03-10.24-21.94-23.45-19.98-10.99,1.63-17.51,11.08-13.76,23.13,3.32,10.66,11.72,19.3,21.16,16.63,11.19-3.17,11.66-10.44,16.04-19.77Z"/>
        <path class="cls-1" d="M274.55,368.06c-1.91-10.24-11.92-21.5-23.99-19.26-12.06,2.25-18.03,8.38-16.12,18.63,1.91,10.24,10.96,20.72,23.03,18.47,12.06-2.25,18.99-7.59,17.08-17.84Z"/>
      </g>
    </g>
  </g>
</svg>